<svg xmlns="http://www.w3.org/2000/svg" xmlns:xl="http://www.w3.org/1999/xlink" width="1335" height="1356" viewBox="351 331 1335 1356"><defs><linearGradient id="a" x1="0" x2="1" gradientUnits="userSpaceOnUse"><stop offset="0" stop-color="#ff5355"/><stop offset="0" stop-color="#ee5565"/><stop offset="1" stop-color="#db5774"/></linearGradient><linearGradient xl:href="#a" id="e" gradientTransform="rotate(-20 3783 58)scale(1720.1944)"/><linearGradient id="b" x1="0" x2="1" gradientUnits="userSpaceOnUse"><stop offset="0" stop-color="#d95694"/><stop offset="0" stop-color="#b5519d"/><stop offset="1" stop-color="#8e4da6"/></linearGradient><linearGradient xl:href="#b" id="f" gradientTransform="rotate(-66 1806 -114)scale(532.4821)"/><linearGradient id="c" x1="0" x2="1" gradientUnits="userSpaceOnUse"><stop offset="0" stop-color="#fdb828"/><stop offset="0" stop-color="#fca332"/><stop offset="1" stop-color="#fa8e3b"/></linearGradient><linearGradient xl:href="#c" id="g" gradientTransform="rotate(42 -334 1876)scale(600.772)"/><linearGradient id="d" x1="0" x2="1" gradientUnits="userSpaceOnUse"><stop offset="0" stop-color="#fde17b"/><stop offset="0" stop-color="#fecba1"/><stop offset="1" stop-color="#fdb4c4"/></linearGradient><linearGradient xl:href="#d" id="h" gradientTransform="rotate(42 -131 1186)scale(1123.5095)"/></defs><g fill="none"><title>Canvas 1</title><title>Layer 1</title><path fill="url(#e)" d="M867 707q5-1 5-6c29-105 25-222 98-310 36-46 103-73 160-54 151 49 168 227 212 355 8 22 54 109 70 124 69-42 151-33 196 39 58 94-14 194 15 292 18 63 78 115 60 187a94 94 0 0 1-43 59q-10 6-21 9-3 5-2 12c-2 17-5 33-18 46q-7 11-19 17-6 9-16 14-3 4-7 6c-17 10-39 8-57 4-23-3-51-17-72-26-107-47-195 5-266 83-27 30-96 108-139 88-8 2-16-3-23-7-18-11-12-30-16-45a299 299 0 0 1-83 71 205 205 0 0 1-156 13c-51-17-92-54-116-102-12-12-21-44-24-61q0-13-2-25c-25-19-48-32-77-44-15-7-37-15-50-23-33-15-73-46-92-77-9-8-18-24-22-35q-22-55 2-108c-5-4-9-17-10-23-18-81 51-153 126-169l8-3a196 196 0 0 1 186 48 215 215 0 0 1 50 74c14-11 22-24 34-33V994c1-55-11-116 35-156q17-14 35-22l8-15q-8 0-15 3l18-48c2-8 8-26 11-31h2l4-16Z"/><path fill="#9d4ea0" d="M531 1002q83-2 144 55a215 215 0 0 1 49 73l17 46 13 35c-4 4-3 2-4 9l5 9 2 5 9 22c9 7 11 10 21 15 15 9 40 21 56 24a360 360 0 0 0 262-29q38-18 75-40v-14l1 14 40-18q31-15 66-23v-16h1c6-7 42-9 52-10 62-4 124 11 177 45l1-1 10 10-6 17c42 27 83 86 93 135 2 9 3 34 4 37q-3 5-2 12c-2 17-5 33-18 46q-7 11-19 17-6 9-16 14-3 4-7 6c-17 10-39 8-57 4-23-3-51-17-72-26-107-47-195 5-266 83-27 30-96 108-139 88-8 2-16-3-23-7-18-11-12-30-16-45a299 299 0 0 1-83 71 205 205 0 0 1-156 13c-51-17-92-54-116-102-12-12-21-44-24-61q0-13-2-25c-25-19-48-32-77-44-15-7-37-15-50-23-33-15-73-46-92-77-9-8-18-24-22-35q-22-55 2-108c-5-4-9-17-10-23-18-81 51-153 126-169l8-3c18-4 25-5 43-6"/><path fill="#78d988" d="m1037 1453 16-27c14-24 27-42 47-62 19-22 44-37 66-54 101-79 245-115 346-15 10 10 33 39 33 53 25 37 46 77 37 123l-2 6q-6 9-16 14-3 4-7 6c-17 10-39 8-57 4-23-3-51-17-72-26-107-47-195 5-266 83-27 30-96 108-139 88-8 2-16-3-23-7-18-11-12-30-16-45-9 12-36 40-49 48 11-14 23-25 32-41 28-47 46-99 70-148"/><path fill="#a7f1aa" d="m1037 1453 16-27c14-24 27-42 47-62 19-22 44-37 66-54 101-79 245-115 346-15 10 10 33 39 33 53 25 37 46 77 37 123l-2 6q-6 9-16 14c11-26 7-46-3-72a225 225 0 0 0-123-123c-59-25-128-23-186 2-102 42-169 139-214 236-14 32-54 83-15 112-8 2-16-3-23-7-18-11-12-30-16-45-9 12-36 40-49 48 11-14 23-25 32-41 28-47 46-99 70-148"/><path fill="#644190" d="m1037 1453 16-27c14-24 27-42 47-62 19-22 44-37 66-54 101-79 245-115 346-15 10 10 33 39 33 53-45-54-96-88-168-95-159-15-276 110-339 241q-23 52-54 100c-9 12-36 40-49 48 11-14 23-25 32-41 28-47 46-99 70-148"/><path fill="#1cbbc8" d="M1500 1501c-23-19-52-43-77-56-92-46-195 5-251 82-8 11-27 42-38 46l-2-2c-4-22 33-78 48-96a278 278 0 0 1 39-39c44-37 101-61 160-55a161 161 0 0 1 106 56c24 29 29 56 72 60-17 10-39 8-57 4"/><path fill="#f75696" d="M718 1328q45-15 93-6l54 10c27 6 50 6 78 5 13 0 20 10 30 19a320 320 0 0 1 39 48c6 8 19 31 26 38h2c-1 5-3 5-3 11-24 49-42 101-70 148-9 16-21 27-32 41-5 6-26 19-34 23a205 205 0 0 1-156 13c-51-17-92-54-116-102-12-12-21-44-24-61q0-13-2-25c-1-25 7-54 18-76a168 168 0 0 1 97-86"/><path fill="#fcaabf" d="M718 1328q45-15 93-6h-1c-12 2-24 0-36 2a178 178 0 0 0-158 198l6 32 7 22c-12-12-21-44-24-61q0-13-2-25c-1-25 7-54 18-76a168 168 0 0 1 97-86"/><path fill="#644190" d="m476 1423-14-27q-21-46-13-96c11-60 64-97 124-85 52 10 82 51 117 87 7 8 22 17 28 26a168 168 0 0 0-97 86c-11 22-19 51-18 76-25-19-48-32-77-44-15-7-37-15-50-23"/><path fill="#1cbbc8" d="M531 1002q83-2 144 55a215 215 0 0 1 49 73l17 46 13 35c-4 4-3 2-4 9l5 9 2 5 9 22c-15-2-76-66-90-81-70-75-184-100-267-31-18 14-27 28-39 46l-6 13c-5-4-9-17-10-23-18-81 51-153 126-169l8-3c18-4 25-5 43-6"/><path fill="#b6f9fa" d="M531 1002q83-2 144 55a215 215 0 0 1 49 73l17 46 13 35c-4 4-3 2-4 9-30-64-42-126-107-168-46-30-93-36-146-26-78 14-145 82-127 164l-6 13c-5-4-9-17-10-23-18-81 51-153 126-169l8-3c18-4 25-5 43-6"/><path fill="url(#f)" d="M1017 1319c50-14 97-44 143-70 100-57 215-80 322-23 74 42 133 128 121 215q0 10-4 19-7 11-19 17l2-6c9-46-12-86-37-123 0-14-23-43-33-53-101-100-245-64-346 15-22 17-47 32-66 54-20 20-33 38-47 62l-16 27c0-6 2-6 3-12l-2 1c-7-7-20-30-26-38a320 320 0 0 0-39-48c-10-9-17-19-30-19l21-3c9-1 48-9 53-15"/><path fill="#d299d3" d="M370 1190c12-18 21-32 39-46 83-69 197-44 267 31 14 15 75 79 90 81 9 7 11 10 21 15 15 9 40 21 56 24a360 360 0 0 0 262-29q38-18 75-40v-14l1 14 40-18q32-15 66-23v-16h1c6-7 42-9 52-10 62-4 124 11 177 45l1-1q3 5 10 10l-6 17c42 27 83 86 93 135 2 9 3 34 4 37q-2 5-2 12c-2 17-5 33-18 46q3-9 4-19c12-87-47-173-121-215-107-57-222-34-322 23-46 26-93 56-143 70a326 326 0 0 1-248-49l-53-41-54-47c-47-39-102-60-163-48-40 8-78 31-101 66-22 33-32 74-23 113l9 33c-9-8-18-24-22-35q-22-55 2-108z"/><path fill="#eea028" d="M1288 1169c6-7 42-9 52-10 62-4 124 11 177 45l1-1q3 5 10 10l-6 17-7-5-3-2q-104-65-224-38Z"/><path fill="#fbac2e" d="M1517 1204q3 5 10 10l-6 17-7-5z"/><path fill="#fefefe" d="M844 813c28-5 44-2 69 11 36 23 39 40 54 78l36 96 13 36q2 4 7 5 3 0 5-3l13-35 32-82c17-45 19-68 61-96q38-20 80-8a107 107 0 0 1 62 55 114 114 0 0 1 10 35c3 17 1 55 1 75v205q-34 8-66 23l-40 18-1-14v14l-74 40a361 361 0 0 1-263 29c-16-3-41-15-56-24-10-5-12-8-21-15l-9-22-2-5-5-9c1-7 0-5 4-9l-13-35-17-46c14-11 22-24 34-33V994c1-55-11-116 35-156q17-14 35-22z"/><path fill="#644190" d="M843 1295c29-26 23-66 23-101v-136c0-15-2-70 3-79 15-6 17 21 21 30l10 26 37 99c14 36 20 72 61 88a70 70 0 0 0 55-2 74 74 0 0 0 32-28c7-12 20-50 26-64l51-138c4 13 11 34 18 45v191l-74 40a361 361 0 0 1-263 29"/><path fill="#9d4ea0" d="M758 1097v66q-11 3-17 13l-17-46c14-11 22-24 34-33"/><path fill="#f8565f" d="M1162 990c2-6 5-15 13-12s6 19 6 25l-1 32c-7-11-14-32-18-45"/><path fill="#644190" d="M741 1176q6-10 17-13v54l-4-6z"/><path fill="#dce2ec" d="M757 1234c8 5 28 31 30 37-10-5-12-8-21-15z"/><path fill="#d0f7f9" d="M750 1220c1-7 0-5 4-9l4 6-3 12Z"/><path fill="#644190" d="M955 630c10-54 24-150 102-139 45 7 63 74 68 111q12 111 9 221c-42 28-44 51-61 96l-32 82-13 35q-2 3-5 3-5-1-7-5l-13-36-36-96c-15-38-18-55-54-78a93 93 0 0 0-69-11l13-30a552 552 0 0 0 25-72c8-27 12-58 19-82l1-2 1 2q-2 5 0 10c5 3 42 10 47 10 0-4 2-15 5-19"/><path fill="#9d4ea0" d="m902 627 1 2q-2 5 0 10c5 3 42 10 48 10-1-4 1-15 4-19a902 902 0 0 1-42 194 93 93 0 0 0-69-11l13-30a552 552 0 0 0 25-72c8-27 12-58 19-82Z"/><path fill="#1cbbc8" d="M1412 816c69-42 151-33 196 39 58 94-14 194 15 292 18 63 78 115 60 187a94 94 0 0 1-43 59q-10 6-21 9c-1-3-2-28-4-37-10-49-51-108-93-135l6-17c25-103-1-225-58-314q-28-42-58-83"/><path fill="url(#g)" d="M1294 599q21 84 61 162c29 55 71 101 103 154 50 83 76 192 60 288l-1 1a288 288 0 0 0-229-35h-1v-58a108 108 0 0 0 113-97c14-89-53-151-97-219-25-40-44-87-45-135-1-24 5-61 36-61"/><path fill="url(#h)" d="M867 707q5-1 5-6c29-105 25-222 98-310 36-46 103-73 160-54 151 49 168 227 212 355 8 22 54 109 70 124q30 41 58 83c57 89 83 211 58 314q-7-5-10-10c16-96-10-205-60-288-32-53-74-99-103-154q-40-78-61-162l-14-41c-24-71-64-151-135-186a129 129 0 0 0-100-6c-95 34-131 172-143 261l-1 2c-7 24-11 55-19 82a552 552 0 0 1-25 72l-13 30-16 3 8-15q-8 0-15 3l18-48c2-8 8-26 11-31h2l4-16Z"/><path fill="#eea028" d="M852 725h13c-7 22-18 55-29 76q-7 0-15 3l18-48c2-8 8-26 11-31Z"/><path fill="#fbac2e" d="M867 707c2 4-1 13-2 18h-13l4-16Z"/><path fill="#f87333" d="m480 1011-2-1c-6-8-10-21-14-31-55-124-36-298 122-329 101-20 174 53 270 59l-4 16h-2c-3 5-9 23-11 31l-18 48q7-3 15-3l-8 15q-18 8-34 22c-47 40-35 101-36 156v103c-12 9-20 22-34 33a215 215 0 0 0-49-73 196 196 0 0 0-187-49Z"/><path fill="#fbac2e" d="m480 1011-2-1c-6-8-10-21-14-31-55-124-36-298 122-329 101-20 174 53 270 59l-4 16h-2c-3 5-9 23-11 31l-18 48c-73 16-154-69-234-36-98 40-85 153-56 234-18 1-25 2-43 6Z"/><path fill="#fdd886" d="m480 1011-2-1c-6-8-10-21-14-31-55-124-36-298 122-329 101-20 174 53 270 59l-4 16h-2c-46 0-87-22-129-38-62-25-134-33-191 8-96 68-88 202-47 298q4 8 5 15Z"/></g></svg>